<svg width="24" height="24" viewBox="0 0 24 24" fill="none" xmlns="http://www.w3.org/2000/svg">
<path d="M9.35395 21C10.0591 21.6224 10.9853 22 11.9998 22C13.0142 22 13.9405 21.6224 14.6456 21M17.9998 8V2M14.9998 5H20.9998M12.9998 2.08389C12.6715 2.02841 12.3371 2 11.9998 2C10.4085 2 8.88235 2.63214 7.75713 3.75736C6.63192 4.88258 5.99977 6.4087 5.99977 8C5.99977 11.0902 5.22024 13.206 4.34944 14.6054C3.61491 15.7859 3.24763 16.3761 3.2611 16.5408C3.27601 16.7231 3.31463 16.7926 3.46155 16.9016C3.59423 17 4.19237 17 5.38863 17H18.6109C19.8071 17 20.4052 17 20.5379 16.9016C20.6848 16.7926 20.7235 16.7231 20.7384 16.5408C20.7518 16.3761 20.3845 15.7858 19.65 14.6052C19.1579 13.8144 18.695 12.7948 18.3855 11.5" stroke="black" stroke-width="2" stroke-linecap="round" stroke-linejoin="round"/>
</svg>
