<svg width="24" height="24" viewBox="0 0 24 24" fill="none" xmlns="http://www.w3.org/2000/svg">
<path d="M17.8778 20.0899C16.1693 21.3312 14.1117 21.9998 11.9999 21.9998C9.88812 21.9998 7.83054 21.3312 6.12206 20.0899M16.3836 3.01182C18.2817 3.93756 19.838 5.44044 20.8294 7.30504C21.8208 9.16964 22.1965 11.3002 21.9026 13.3915M2.09733 13.3914C1.80343 11.3002 2.17911 9.16955 3.17053 7.30494C4.16196 5.44034 5.71823 3.93747 7.6163 3.01172M11.4342 6.56544L6.5656 11.4341C6.36759 11.6321 6.26859 11.7311 6.23149 11.8452C6.19886 11.9457 6.19886 12.0538 6.23149 12.1543C6.26859 12.2684 6.36759 12.3674 6.5656 12.5654L11.4342 17.4341C11.6322 17.6321 11.7312 17.7311 11.8454 17.7682C11.9458 17.8008 12.054 17.8008 12.1544 17.7682C12.2686 17.7311 12.3676 17.6321 12.5656 17.4341L17.4342 12.5654C17.6322 12.3674 17.7312 12.2684 17.7683 12.1543C17.801 12.0538 17.801 11.9457 17.7683 11.8452C17.7312 11.7311 17.6322 11.6321 17.4342 11.4341L12.5656 6.56544C12.3676 6.36743 12.2686 6.26843 12.1544 6.23134C12.054 6.19871 11.9458 6.19871 11.8454 6.23134C11.7312 6.26843 11.6322 6.36743 11.4342 6.56544Z" stroke="black" stroke-width="2" stroke-linecap="round" stroke-linejoin="round"/>
</svg>
