<svg width="24" height="24" viewBox="0 0 24 24" fill="none" xmlns="http://www.w3.org/2000/svg">
<path d="M17.8778 20.0899C16.1693 21.3312 14.1117 21.9998 11.9999 21.9998C9.88812 21.9998 7.83054 21.3312 6.12206 20.0899M16.3836 3.01182C18.2817 3.93756 19.838 5.44044 20.8294 7.30504C21.8208 9.16964 22.1965 11.3002 21.9026 13.3915M2.09733 13.3914C1.80343 11.3002 2.17911 9.16955 3.17053 7.30494C4.16196 5.44034 5.71823 3.93747 7.6163 3.01172M17.4999 11.9998C17.4999 15.0373 15.0375 17.4998 11.9999 17.4998C8.96235 17.4998 6.49991 15.0373 6.49991 11.9998C6.49991 8.96219 8.96235 6.49976 11.9999 6.49976C15.0375 6.49976 17.4999 8.96219 17.4999 11.9998Z" stroke="black" stroke-width="2" stroke-linecap="round" stroke-linejoin="round"/>
</svg>
