<svg width="24" height="24" viewBox="0 0 24 24" fill="none" xmlns="http://www.w3.org/2000/svg">
<path d="M19.0001 21H20.0105C20.9817 21 21.4673 21 21.7349 20.7975C21.9681 20.6211 22.1124 20.3515 22.1298 20.0596C22.1498 19.7246 21.8805 19.3205 21.3418 18.5125L18.3314 13.9969C17.8863 13.3292 17.6637 12.9954 17.3832 12.8791C17.138 12.7773 16.8623 12.7773 16.6171 12.8791C16.3365 12.9954 16.114 13.3292 15.6689 13.9969L14.9247 15.1132M19.0001 21L11.3156 9.90018C10.8737 9.26182 10.6527 8.94264 10.3767 8.83044C10.1353 8.73228 9.86502 8.73228 9.62356 8.83044C9.34754 8.94264 9.12657 9.26182 8.68463 9.90018L2.73834 18.4893C2.17531 19.3025 1.8938 19.7092 1.90983 20.0473C1.92379 20.3419 2.06701 20.6152 2.30121 20.7943C2.57014 21 3.06471 21 4.05385 21H19.0001ZM21.0001 6C21.0001 7.65685 19.657 9 18.0001 9C16.3433 9 15.0001 7.65685 15.0001 6C15.0001 4.34315 16.3433 3 18.0001 3C19.657 3 21.0001 4.34315 21.0001 6Z" stroke="black" stroke-width="2" stroke-linecap="round" stroke-linejoin="round"/>
</svg>
