<svg width="24" height="24" viewBox="0 0 24 24" fill="none" xmlns="http://www.w3.org/2000/svg">
<path d="M6 17C6 17.3513 6 17.527 6.01567 17.6797C6.14575 18.9474 7.0626 19.9947 8.30206 20.2912C8.45134 20.3269 8.6255 20.3501 8.97368 20.3965L15.5656 21.2754C17.442 21.5256 18.3803 21.6507 19.1084 21.3612C19.7478 21.107 20.2803 20.6408 20.6168 20.0406C21 19.3571 21 18.4106 21 16.5175V7.4825C21 5.58946 21 4.64294 20.6168 3.95941C20.2803 3.3593 19.7478 2.89307 19.1084 2.63886C18.3803 2.34932 17.442 2.47442 15.5656 2.72461L8.97368 3.60353C8.62546 3.64996 8.45135 3.67318 8.30206 3.70889C7.0626 4.00538 6.14575 5.0526 6.01567 6.32036C6 6.47307 6 6.64872 6 7.00002M12 8.00002L16 12M16 12L12 16M16 12H3" stroke="black" stroke-width="2" stroke-linecap="round" stroke-linejoin="round"/>
</svg>
