<svg width="24" height="24" viewBox="0 0 24 24" fill="none" xmlns="http://www.w3.org/2000/svg">
<path d="M3 8H3.2C4.88016 8 5.72024 8 6.36197 7.67302C6.92646 7.3854 7.3854 6.92646 7.67302 6.36197C8 5.72024 8 4.88016 8 3.2V3M3 16H3.2C4.88016 16 5.72024 16 6.36197 16.327C6.92646 16.6146 7.3854 17.0735 7.67302 17.638C8 18.2798 8 19.1198 8 20.8V21M16 3V3.2C16 4.88016 16 5.72024 16.327 6.36197C16.6146 6.92646 17.0735 7.3854 17.638 7.67302C18.2798 8 19.1198 8 20.8 8H21M16 21V20.8C16 19.1198 16 18.2798 16.327 17.638C16.6146 17.0735 17.0735 16.6146 17.638 16.327C18.2798 16 19.1198 16 20.8 16H21" stroke="black" stroke-width="2" stroke-linecap="round" stroke-linejoin="round"/>
</svg>
