<svg width="24" height="24" viewBox="0 0 24 24" fill="none" xmlns="http://www.w3.org/2000/svg">
<path d="M6.20497 10.5578C5.72603 8.76952 6.08734 6.80306 7.2889 5.28366M17.7955 10.5577C18.2744 8.76947 17.9131 6.80301 16.7115 5.28361M2.34207 11.5996C1.50412 8.47481 2.20568 5.02318 4.44675 2.4458M21.6549 11.5996C22.4929 8.47485 21.7913 5.02322 19.5502 2.44584M12.0002 14.9999V8.99992M5.50022 18.4999H9.50022M5.20022 21.9999H18.8002C19.9203 21.9999 20.4804 21.9999 20.9082 21.7819C21.2845 21.5902 21.5905 21.2842 21.7822 20.9079C22.0002 20.4801 22.0002 19.92 22.0002 18.7999V18.1999C22.0002 17.0798 22.0002 16.5198 21.7822 16.0919C21.5905 15.7156 21.2845 15.4097 20.9082 15.2179C20.4804 14.9999 19.9203 14.9999 18.8002 14.9999H5.20022C4.08012 14.9999 3.52006 14.9999 3.09224 15.2179C2.71592 15.4097 2.40996 15.7156 2.21821 16.0919C2.00022 16.5198 2.00022 17.0798 2.00022 18.1999V18.7999C2.00022 19.92 2.00022 20.4801 2.21821 20.9079C2.40996 21.2842 2.71592 21.5902 3.09224 21.7819C3.52006 21.9999 4.08012 21.9999 5.20022 21.9999Z" stroke="black" stroke-width="2" stroke-linecap="round" stroke-linejoin="round"/>
</svg>
