<svg width="24" height="24" viewBox="0 0 24 24" fill="none" xmlns="http://www.w3.org/2000/svg">
<path d="M16.2429 4.75732C18.586 7.10047 18.586 10.8995 16.2429 13.2426M7.75758 13.2426C5.41444 10.8995 5.41443 7.10047 7.75758 4.75732M4.85853 16C1.02383 12.0894 1.0473 5.81059 4.92893 1.92896M19.0715 1.92896C22.9531 5.81059 22.9766 12.0894 19.1419 16M12.0002 16V9M5.00022 22H19.0002C19.9321 22 20.398 22 20.7656 21.8478C21.2556 21.6448 21.645 21.2554 21.848 20.7654C22.0002 20.3978 22.0002 19.9319 22.0002 19C22.0002 18.0681 22.0002 17.6022 21.848 17.2346C21.645 16.7446 21.2556 16.3552 20.7656 16.1522C20.398 16 19.9321 16 19.0002 16H5.00022C4.06834 16 3.6024 16 3.23485 16.1522C2.7448 16.3552 2.35545 16.7446 2.15246 17.2346C2.00022 17.6022 2.00022 18.0681 2.00022 19C2.00022 19.9319 2.00022 20.3978 2.15246 20.7654C2.35545 21.2554 2.7448 21.6448 3.23485 21.8478C3.6024 22 4.06834 22 5.00022 22Z" stroke="black" stroke-width="2" stroke-linecap="round" stroke-linejoin="round"/>
</svg>
