<svg width="24" height="24" viewBox="0 0 24 24" fill="none" xmlns="http://www.w3.org/2000/svg">
<path d="M8.37658 15.6163L2.71973 21.2732M11.6943 6.64181L10.1334 8.2027C10.0061 8.33003 9.9424 8.39369 9.86986 8.44427C9.80548 8.48917 9.73604 8.52634 9.66297 8.555C9.58065 8.58729 9.49236 8.60495 9.3158 8.64026L5.65133 9.37315C4.69903 9.56361 4.22288 9.65884 4.00012 9.9099C3.80605 10.1286 3.71743 10.4213 3.75758 10.7109C3.80367 11.0434 4.14703 11.3867 4.83375 12.0735L11.9195 19.1592C12.6062 19.8459 12.9496 20.1893 13.282 20.2354C13.5716 20.2755 13.8643 20.1869 14.083 19.9928C14.3341 19.7701 14.4293 19.2939 14.6198 18.3416L15.3527 14.6771C15.388 14.5006 15.4056 14.4123 15.4379 14.33C15.4666 14.2569 15.5038 14.1875 15.5487 14.1231C15.5992 14.0505 15.6629 13.9869 15.7902 13.8596L17.3511 12.2987C17.4325 12.2173 17.4732 12.1766 17.518 12.141C17.5577 12.1095 17.5998 12.081 17.6439 12.0558C17.6935 12.0274 17.7464 12.0048 17.8522 11.9594L20.3466 10.8904C21.0743 10.5785 21.4381 10.4226 21.6034 10.1706C21.7479 9.95025 21.7996 9.68175 21.7473 9.42348C21.6874 9.12813 21.4075 8.84822 20.8477 8.28839L15.7045 3.14526C15.1447 2.58543 14.8648 2.30552 14.5695 2.24565C14.3112 2.19329 14.0427 2.245 13.8223 2.38953C13.5703 2.55481 13.4144 2.91866 13.1025 3.64636L12.0335 6.14071C11.9882 6.24653 11.9655 6.29944 11.9372 6.34905C11.912 6.39313 11.8835 6.43522 11.8519 6.47496C11.8164 6.51971 11.7757 6.56041 11.6943 6.64181Z" stroke="black" stroke-width="2" stroke-linecap="round" stroke-linejoin="round"/>
</svg>
