<svg width="24" height="24" viewBox="0 0 24 24" fill="none" xmlns="http://www.w3.org/2000/svg">
<path d="M17.7447 2.81298C18.7095 1.8165 20.3035 1.80361 21.2843 2.78436C22.2381 3.73823 22.2559 5.27921 21.3242 6.25481L18.5456 9.16457C18.3278 9.39265 18.2189 9.50668 18.1518 9.64024C18.0924 9.75847 18.057 9.88732 18.0478 10.0193C18.0373 10.1684 18.0728 10.3221 18.1437 10.6293L19.8716 18.1169C19.9444 18.4323 19.9808 18.59 19.969 18.7426C19.9586 18.8776 19.9209 19.0091 19.8582 19.1291C19.7873 19.2647 19.6728 19.3792 19.4439 19.608L19.0732 19.9788C18.467 20.585 18.164 20.888 17.8538 20.9429C17.5829 20.9908 17.3043 20.925 17.0834 20.761C16.8305 20.5733 16.695 20.1666 16.4239 19.3534L14.4141 13.3241L11.0688 16.6695C10.8691 16.8691 10.7693 16.969 10.7025 17.0866C10.6433 17.1907 10.6034 17.3047 10.5845 17.423C10.5632 17.5565 10.5788 17.6968 10.61 17.9775L10.7937 19.6309C10.8249 19.9116 10.8405 20.0519 10.8192 20.1854C10.8003 20.3037 10.7603 20.4177 10.7012 20.5219C10.6344 20.6394 10.5345 20.7393 10.3348 20.939L10.1373 21.1365C9.66428 21.6095 9.42775 21.8461 9.1649 21.9146C8.93436 21.9746 8.68993 21.9504 8.47565 21.8463C8.23134 21.7276 8.04579 21.4493 7.67469 20.8926L6.10637 18.5401C6.04007 18.4407 6.00692 18.391 5.96843 18.3459C5.93424 18.3058 5.89694 18.2685 5.85688 18.2343C5.81178 18.1958 5.76206 18.1627 5.66261 18.0964L3.31012 16.5281C2.75348 16.157 2.47515 15.9714 2.35643 15.7271C2.2523 15.5128 2.2281 15.2684 2.28818 15.0378C2.35668 14.775 2.59321 14.5385 3.06627 14.0654L3.26378 13.8679C3.46346 13.6682 3.56331 13.5684 3.68089 13.5016C3.78505 13.4424 3.899 13.4024 4.0173 13.3836C4.15083 13.3623 4.29117 13.3779 4.57184 13.4091L6.22523 13.5928C6.5059 13.6239 6.64623 13.6395 6.77977 13.6182C6.89807 13.5994 7.01202 13.5594 7.11618 13.5002C7.23376 13.4334 7.3336 13.3336 7.53329 13.1339L10.8786 9.7886L4.84933 7.77884C4.0361 7.50776 3.62949 7.37222 3.44169 7.11932C3.27771 6.89848 3.21193 6.61984 3.25984 6.34898C3.31471 6.03879 3.61778 5.73572 4.22393 5.12957L4.5947 4.7588C4.82359 4.52991 4.93804 4.41546 5.07363 4.34457C5.19364 4.28183 5.32514 4.24411 5.46017 4.23371C5.61272 4.22197 5.77043 4.25836 6.08584 4.33115L13.545 6.05249C13.8549 6.12401 14.0099 6.15978 14.1595 6.14914C14.304 6.13886 14.4445 6.09733 14.5713 6.02742C14.7027 5.95501 14.8133 5.84074 15.0346 5.6122L17.7447 2.81298Z" stroke="black" stroke-width="2" stroke-linecap="round" stroke-linejoin="round"/>
</svg>
