<svg width="24" height="24" viewBox="0 0 24 24" fill="none" xmlns="http://www.w3.org/2000/svg">
<path d="M8.80868 3.19686L11.4382 2.21079C11.6461 2.13283 11.75 2.09385 11.857 2.07839C11.9518 2.06469 12.0482 2.06469 12.143 2.07839C12.25 2.09385 12.3539 2.13283 12.5618 2.21079L17.9236 4.22146C18.6722 4.50219 19.0465 4.64255 19.3223 4.88564C19.566 5.10039 19.7537 5.37126 19.8692 5.67482C20 6.01845 20 6.4182 20 7.21772V12.0001C20 12.7204 19.8847 13.4119 19.6818 14.0711M17.6219 17.6258C15.9362 19.5861 13.7879 20.979 12.6996 21.614C12.4772 21.7438 12.366 21.8087 12.2098 21.8422C12.0885 21.8682 11.9116 21.8682 11.7904 21.8422C11.6341 21.8088 11.5234 21.7442 11.302 21.615C9.35396 20.4785 4 16.9086 4 12.0001V5.77643C4 5.30947 4.28966 4.89149 4.72688 4.72753M3 3.00011L21 21.0001" stroke="black" stroke-width="2" stroke-linecap="round" stroke-linejoin="round"/>
</svg>
