<svg width="24" height="24" viewBox="0 0 24 24" fill="none" xmlns="http://www.w3.org/2000/svg">
<path d="M17.0002 19.4C17.0002 20.8359 15.8809 22 14.5002 22C13.1195 22 12.0002 20.8359 12.0002 19.4V12M2.12652 10.4063C2.88973 5.64091 7.01978 2 12.0002 2C16.9806 2 21.1107 5.64091 21.8739 10.4063C21.9484 10.8714 21.9856 11.1039 21.8921 11.3523C21.8177 11.55 21.6355 11.7636 21.4522 11.8684C21.2217 12 20.9479 12 20.4002 12H3.60021C3.05257 12 2.77875 12 2.54826 11.8684C2.36488 11.7636 2.1827 11.55 2.1083 11.3523C2.01478 11.1039 2.05202 10.8714 2.12652 10.4063Z" stroke="black" stroke-width="2" stroke-linecap="round" stroke-linejoin="round"/>
</svg>
